<svg xmlns="http://www.w3.org/2000/svg" enable-background="new 0 0 3000 3000" viewBox="0 0 3000 3000"><path fill="#ff3939" d="M984.33,524.18l428.84,119.01c53.03,14.72,108.91,5.46,149.92-24.83l207.15-152.99
		c80.55-59.49,205.63-32.27,257.81,56.11l182.41,308.98c32.56,55.15,96.55,89.58,163.05,87.73l143.63-3.99
		c141.43-3.93,235.01,144.79,155.81,247.6l-483.19,627.21c-26.89,34.91-35.3,79.7-23.09,122.98l122.29,433.51
		c34.94,123.88-96.95,222.19-225.17,167.85l-258.73-109.64c-100.36-42.53-211.92,8.75-228.63,105.09l0,0
		c-21.43,123.56-189.91,162.5-286.7,66.25l-118.47-117.81c-48.27-48-121.88-66.02-185.61-45.43l-47.37,15.3
		c-139.65,45.12-279.65-92.09-219.71-215.34l113.88-234.18c31.12-64,8.06-142.12-55.55-188.12l-409.49-296.13
		c-111.05-80.31-83.8-236.07,46.73-267.13l371.26-88.35c93.66-22.29,141.11-114.43,102.73-199.47l-97.86-216.81
		C736.53,602.5,850.13,486.94,984.33,524.18z"/><path d="M2371.8,371.01c-11.85,0-21.7,8.48-23.86,19.69l-357.51,49.84c-2.95-10.11-12.27-17.51-23.33-17.51
				c-13.43,0-24.31,10.89-24.31,24.31c0,2.39,0.36,4.7,1,6.88l-367.33,176.83c-4.46-5.38-11.19-8.81-18.72-8.81
				c-7.89,0-14.89,3.78-19.33,9.61l-361.14-98.47c-0.8-12.7-11.33-22.76-24.24-22.76c-13.43,0-24.31,10.89-24.31,24.31
				c0,1.65,0.17,3.27,0.48,4.83L764.17,753.39c-4.26-3.67-9.79-5.91-15.86-5.91c-13.43,0-24.31,10.89-24.31,24.31
				c0,13.43,10.89,24.31,24.31,24.31c13.43,0,24.31-10.89,24.31-24.31c0-1.65-0.17-3.26-0.48-4.83l365.01-213.63
				c4.26,3.67,9.79,5.91,15.86,5.91c8.37,0,15.75-4.23,20.12-10.67l360.28,98.24c0.14,13.3,10.96,24.05,24.3,24.05
				c13.43,0,24.31-10.89,24.31-24.31c0-0.24-0.03-0.47-0.04-0.7l371.1-178.65c3.96,2.79,8.78,4.45,13.99,4.45
				c10.17,0,18.87-6.25,22.5-15.11l360.53-50.25c4.01,7.91,12.2,13.34,21.68,13.34c13.43,0,24.31-10.89,24.31-24.31
				C2396.11,381.9,2385.23,371.01,2371.8,371.01z"/><path d="M2371.8,510.62c-13.43,0-24.31,10.89-24.31,24.31c0,1.26,0.13,2.49,0.31,3.69l-364.25,190.99
				c-4.33-3.99-10.1-6.45-16.46-6.45c-11.59,0-21.26,8.11-23.7,18.96l-359.06,44.35c-3.9-8.21-12.25-13.9-21.94-13.9
				c-6.01,0-11.51,2.19-15.75,5.81l-369.42-168.16c0.07-0.78,0.12-1.56,0.12-2.36c0-13.43-10.89-24.31-24.31-24.31
				c-9.69,0-18.03,5.68-21.94,13.88l-358.63-41.01c-1.4-12.1-11.66-21.5-24.14-21.5c-13.43,0-24.31,10.89-24.31,24.31
				c0,13.43,10.89,24.31,24.31,24.31c8.79,0,16.46-4.68,20.74-11.67l360.23,41.19c2.39,10.92,12.1,19.1,23.74,19.1
				c6.96,0,13.22-2.94,17.65-7.63l367.89,167.46c-0.32,1.57-0.49,3.2-0.49,4.87c0,13.43,10.89,24.31,24.31,24.31
				c11.63,0,21.34-8.17,23.73-19.08l358.97-44.33c3.88,8.27,12.26,14.01,22,14.01c13.43,0,24.31-10.89,24.31-24.31
				c0-1.37-0.14-2.71-0.36-4.01l364.06-190.89c4.36,4.12,10.22,6.67,16.69,6.67c13.43,0,24.31-10.89,24.31-24.31
				C2396.11,521.51,2385.23,510.62,2371.8,510.62z"/><path fill="#fff" d="M1013.68,1116.68l-14.9-38.17c-4.76-12.2-3.21-25.95,4.14-36.79l23-33.91c5.05-7.45,5.41-16.56,0.97-24.38
				c-4.44-7.83-12.51-12.2-21.43-11.66l-40.9,2.37c-13.05,0.72-25.67-4.96-33.71-15.3l-25.14-32.35c-4.5-5.78-11.01-8.95-18.03-8.95
				c-1.6,0-3.22,0.17-4.86,0.5c-8.81,1.81-15.44,8.08-17.71,16.78l-10.38,39.63c-3.32,12.67-12.65,22.88-24.96,27.33l-38.54,13.92
				c-8.46,3.06-14.11,10.22-15.11,19.15c-1,8.94,2.92,17.17,10.49,22.03l34.49,22.12c11.02,7.07,17.85,19.11,18.28,32.19l1.33,40.95
				c0.29,8.99,5.35,16.58,13.54,20.29c8.19,3.72,17.24,2.53,24.19-3.17l31.69-25.96c10.13-8.3,23.7-11.08,36.26-7.44l39.36,11.39
				c8.65,2.5,17.42,0.03,23.48-6.61C1015.28,1134.03,1016.95,1125.06,1013.68,1116.68z"/><path d="M1039.7,1017.17c8.56-12.62,9.2-28.7,1.67-41.97c-7.53-13.26-21.71-20.97-36.89-20.07l-40.9,2.37
				c-7.55,0.44-14.91-2.88-19.59-8.89l-25.14-32.35c-9.36-12.04-24.44-17.63-39.39-14.56c-14.94,3.07-26.62,14.13-30.49,28.89
				l-10.38,39.63c-1.93,7.36-7.35,13.29-14.5,15.88l-38.54,13.92c-14.34,5.18-24.31,17.81-26.02,32.97
				c-1.7,15.16,5.21,29.68,18.05,37.92l34.49,22.12c6.4,4.11,10.37,11.1,10.62,18.7l1.33,40.95c0.49,15.24,9.43,28.63,23.31,34.93
				c5.31,2.41,10.93,3.6,16.5,3.6c8.99,0,17.86-3.08,25.14-9.05l31.69-25.96c5.88-4.82,13.75-6.44,21.07-4.32l39.36,11.39
				c14.65,4.24,30.14-0.12,40.42-11.38c10.28-11.26,13.23-27.08,7.69-41.29l-14.9-38.17c-2.77-7.09-1.87-15.08,2.4-21.37
				L1039.7,1017.17z M985.73,1147.28l-39.36-11.39c-12.57-3.64-26.13-0.86-36.26,7.44l-31.69,25.96c-6.96,5.7-16,6.88-24.19,3.17
				c-8.19-3.72-13.25-11.3-13.54-20.29l-1.33-40.95c-0.42-13.09-7.25-25.12-18.28-32.19l-34.49-22.12
				c-7.57-4.86-11.49-13.09-10.49-22.03c1-8.94,6.65-16.1,15.11-19.15l38.54-13.92c12.32-4.45,21.65-14.67,24.96-27.33l10.38-39.63
				c2.28-8.7,8.9-14.98,17.71-16.78c1.63-0.33,3.26-0.5,4.86-0.5c7.02,0,13.53,3.17,18.03,8.95l25.14,32.35
				c8.04,10.34,20.67,16.02,33.71,15.3l40.9-2.37c8.92-0.55,16.99,3.83,21.43,11.66c4.44,7.82,4.08,16.94-0.97,24.38l-23,33.91
				c-7.35,10.83-8.9,24.59-4.14,36.79l14.9,38.17c3.27,8.38,1.6,17.35-4.47,23.99C1003.15,1147.31,994.37,1149.78,985.73,1147.28z"/><path fill="#fff" d="M775.45,1222.1c-5.86-7.68-7.57-17.75-4.57-26.93l8.51-26.03c1.54-4.69,0.34-9.56-3.19-13.01
				c-3.53-3.45-8.42-4.54-13.08-2.9l-25.84,9.08c-9.11,3.21-19.21,1.72-27.02-3.97l-22.13-16.14c-2.25-1.64-4.83-2.48-7.44-2.48
				c-2,0-4.02,0.49-5.92,1.49c-4.38,2.29-6.91,6.6-6.8,11.54l0.65,27.38c0.23,9.66-4.3,18.81-12.13,24.47l-22.19,16.06
				c-4,2.89-5.89,7.53-5.07,12.4c0.83,4.87,4.14,8.62,8.88,10.03l26.24,7.84c9.26,2.76,16.56,9.91,19.53,19.1l8.41,26.06
				c1.52,4.7,5.34,7.93,10.22,8.65c4.88,0.73,9.47-1.28,12.28-5.34l15.57-22.53c5.48-7.94,14.51-12.67,24.15-12.67
				c0.02,0,0.04,0,0.06,0l27.38,0.05c0.01,0,0.02,0,0.03,0c4.93,0,9.17-2.63,11.36-7.05c2.19-4.42,1.71-9.41-1.28-13.33
				L775.45,1222.1z"/><path d="M805.32 1233.76l-16.62-21.77c-2.53-3.32-3.27-7.67-1.97-11.64l8.51-26.03c3.5-10.7.67-22.23-7.37-30.1-8.05-7.87-19.63-10.43-30.25-6.71l-25.84 9.08c-3.94 1.39-8.3.74-11.68-1.72l-22.13-16.14c-9.09-6.63-20.93-7.51-30.91-2.29-9.97 5.22-16 15.45-15.73 26.7l.65 27.38c.1 4.17-1.86 8.13-5.24 10.57l-22.19 16.06c-9.12 6.6-13.61 17.59-11.73 28.68 1.88 11.09 9.75 19.99 20.53 23.21l26.24 7.84c4 1.2 7.16 4.28 8.44 8.26l8.41 26.06c3.46 10.71 12.52 18.38 23.65 20.02 1.46.22 2.91.32 4.36.32 9.55 0 18.51-4.63 24.06-12.67l15.57-22.53c2.37-3.43 6.27-5.48 10.44-5.48.01 0 .02 0 .03 0l27.38.05c.02 0 .04 0 .06 0 11.23 0 21.3-6.25 26.29-16.31C813.29 1254.53 812.15 1242.7 805.32 1233.76zM793.35 1257.21c-2.19 4.41-6.43 7.05-11.36 7.05-.01 0-.02 0-.03 0l-27.38-.05c-.02 0-.04 0-.06 0-9.64 0-18.66 4.73-24.15 12.67l-15.57 22.53c-2.81 4.06-7.41 6.07-12.28 5.34-4.89-.72-8.7-3.95-10.22-8.65l-8.41-26.06c-2.97-9.2-10.27-16.34-19.53-19.1l-26.24-7.84c-4.73-1.42-8.05-5.16-8.88-10.03-.82-4.87 1.07-9.5 5.07-12.4l22.19-16.06c7.83-5.67 12.36-14.82 12.13-24.47l-.65-27.38c-.12-4.94 2.42-9.25 6.8-11.54 1.9-1 3.92-1.49 5.92-1.49 2.6 0 5.18.83 7.44 2.48l22.13 16.14c7.81 5.7 17.91 7.18 27.02 3.97l25.84-9.08c4.66-1.64 9.55-.55 13.08 2.9 3.53 3.45 4.72 8.32 3.19 13.01l-8.51 26.03c-3 9.19-1.3 19.25 4.57 26.93l16.62 21.77C795.07 1247.8 795.55 1252.78 793.35 1257.21zM2216.15 1925.53c13.76-43.56 30.75-83.48 51.43-120.65 33.82-60.75 72.86-94.88 116.11-101.53 1-.15 2-.29 3-.41 13.43-1.67 24.35.04 32.46 5.09 16.62 10.37 19.78 34.76 13.22 52.35-7.42 19.91-24.69 35.37-40.59 47.85-19.61 15.39-40.85 29.54-61.36 43.22-26.35 17.56-53.61 35.72-78.08 56.91-5.92 5.12-11.54 10.39-16.89 15.77-46.57 75.91-101.12 183.94-113.86 289.58-2.72 22.56-3.06 41.42-2.32 56.51 13.83-40.81 50.37-102.3 145.78-164.1 29.79-31.56 60.87-58.83 93.9-82.46 56.56-40.43 106.46-54.58 148.38-42.09.97.29 1.93.59 2.89.91 12.85 4.24 21.99 10.46 27.16 18.49 10.59 16.48 3 39.88-10.45 52.97-15.23 14.82-37.45 21.41-57.17 25.88-24.31 5.52-49.56 9.22-73.96 12.81-31.33 4.6-63.74 9.35-94.92 18.02-9.7 2.7-19.07 5.82-28.1 9.28-.01 0-.01.01-.02.01 4.66.46 10.06 1.23 16.29 2.47 26.69-1.12 52.31-.03 77.3 3.37 47.08 6.4 78.53 22.75 93.52 48.61.35.6.69 1.2 1.01 1.81 4.41 8.13 6.04 15.51 4.84 21.92-2.46 13.16-17.2 21.24-30.02 21.44-14.52.24-28.65-6.9-40.56-13.92-14.68-8.65-28.97-18.64-42.78-28.29-17.74-12.4-36.08-25.22-55.65-35.53-1.87-.98-3.75-1.93-5.62-2.85-26.28-5.86-37.02-3.22-37.55-3.08-1.38.44-2.79.45-4.12.15-56.47 41.18-86.2 80.44-101.75 109.24-22.75 42.14-20.87 71.47-20.84 71.85.01.14-.01.28-.01.43.01.28.01.56-.02.83-.02.25-.05.5-.1.74-.04.25-.1.5-.17.74-.07.25-.15.49-.25.73-.09.23-.19.46-.3.68-.11.23-.24.44-.37.66-.14.22-.28.43-.44.63-.15.19-.31.38-.47.56-.18.19-.36.37-.55.54-.19.17-.39.32-.6.47-.2.14-.4.28-.62.41-.24.14-.5.27-.76.38-.13.06-.24.14-.37.19-.08.03-.15.03-.23.05-.5.17-1.02.3-1.56.37-.11.01-.22.05-.33.06-.02 0-.04.01-.06.01-.58.05-1.15.01-1.7-.06-.07-.01-.14 0-.21-.01 0 0 0 0-.01 0 0 0 0 0-.01 0-.6-.1-1.17-.29-1.72-.51-.12-.05-.24-.1-.36-.16-.54-.25-1.05-.55-1.51-.91-.06-.05-.11-.11-.18-.16-.42-.35-.79-.74-1.13-1.17-.08-.1-.16-.19-.23-.29-.35-.5-.65-1.03-.88-1.61-.02-.05-.05-.08-.07-.13-.58-1.49-14-37.36-5.86-107.16C2117.93 2108.97 2169.82 2002.67 2216.15 1925.53z"/><circle cx="2380.23" cy="1751.46" r="16.67" fill="#fff"/><circle cx="2474.03" cy="2033.17" r="16.67" fill="#fff"/><circle cx="2426.76" cy="2182.43" r="13.89" fill="#fff"/><path d="M1018.86,1814.86c38.36,53.87,70.86,111.9,95.77,174.07c12.63,31.53,23.47,66.25,14.44,98.99
				c-9.86,35.76-42.09,61.75-76.88,74.62c-84.99,31.44-183.24-5.29-248.77-67.88c-65.53-62.59-105.03-146.97-142.27-229.58
				c-29.32-65.04-58.57-131.15-101.25-188.8c-18.29-24.71-114.87-115.06-84.13-149.32c41.78-48.29,192.66-33.84,303.48,48.25
				C870.52,1642.82,953.26,1722.75,1018.86,1814.86z"/><path fill="#fff" d="M601.33,1585.46c2.85-3.61,8.1-4.22,11.7-1.36c155.23,122.86,268.4,272.63,336.01,376.63
				c0.37,0.57,0.72,1.13,1.09,1.69c-14.07-70.31-54.76-215.68-161.01-308.08c-3.28-2.85-3.63-7.83-0.78-11.11
				c2.85-3.28,7.83-3.63,11.11-0.78c77.68,67.55,120.58,161.62,142.89,228.64c20.42,61.33,27.69,110.68,29.58,125.79
				c58.09,94.22,87.56,161.58,87.88,162.33c1.83,4.22-0.11,9.13-4.33,10.96c-0.04,0.02-0.08,0.03-0.12,0.05
				c-4.19,1.75-9.03-0.19-10.85-4.38c-0.63-1.46-29.28-66.48-86.07-158.63c-0.33-0.43-0.62-0.89-0.86-1.39
				c-20.93-33.89-45.66-71.41-74.17-110.76c-20.78,5.23-85.48,10.79-168.02-86.55c-2.82-3.32-2.4-8.28,0.91-11.1
				c3.32-2.82,8.29-2.41,11.1,0.91c68.86,81.2,123.3,85.32,145.63,82.54c-69.13-93.42-159.2-195.76-270.35-283.74
				C599.09,1594.31,598.48,1589.07,601.33,1585.46z"/><path d="M982.28,960.04c-0.17-64.82,45.42-143.67,101.76-176.18l486.04-280.48c28.36-16.37,54.07-17.89,72.63-7.1l43.44,25.35
					c0.05,0.03,0.1,0.06,0.15,0.09l0.28,0.16l0,0.01c18.31,10.65,29.67,33.26,29.76,65.46l-0.51,1291.27
					c0.17,64.73-45.42,143.67-101.76,176.19l-486.03,280.48c-28.36,16.36-54.05,17.86-72.61,7.06l-0.01,0.01l-43.88-25.59
					c-18.32-10.65-29.68-33.3-29.77-65.46L982.28,960.04z"/><path fill="none" d="M1136.64,825.68l94.28-54.41c2.22-1.28,4.81-1.79,7.35-1.43l51.66,7.25c2.54,0.36,5.13-0.14,7.35-1.43
					l152.28-87.86c1.07-0.62,2.04-1.41,2.86-2.33l75.14-84.72c0.82-0.93,1.79-1.71,2.86-2.33l103.8-59.9
					c30.48-17.59,68.56,4.41,68.56,39.6l-0.19,1302.6c-0.01,65.34-34.87,125.71-91.46,158.37l-79.38,45.82l-299.72,172.94
					l-128.57,74.21c-26.56,15.33-59.76-3.84-59.75-34.51l0.19-1311.33C1043.93,919.98,1079.27,858.78,1136.64,825.68z"/><path fill="#fff" d="M1103.48,2332.06l128.57-74.21l299.72-172.94l79.38-45.82c56.59-32.66,91.45-93.04,91.46-158.37
					l0.19-1302.6c0-35.19-38.08-57.18-68.56-39.6l-103.8,59.9c-1.07,0.62-2.04,1.41-2.86,2.33l-75.14,84.72
					c-0.82,0.93-1.79,1.71-2.86,2.33l-152.28,87.86c-2.22,1.28-4.81,1.78-7.35,1.43l-51.66-7.25c-2.54-0.36-5.13,0.15-7.35,1.43
					l-94.28,54.41c-57.37,33.11-92.71,94.31-92.72,160.54l-0.19,1311.33C1043.72,2328.22,1076.92,2347.39,1103.48,2332.06z"/><path fill="#fff" d="M1440.67 676.07l-101.26 58.45c-5.58 3.22-10.1 1.31-10.1-4.27 0-5.58 4.52-12.71 10.1-15.93l101.26-58.45c5.58-3.22 10.1-1.31 10.1 4.27C1450.77 665.72 1446.25 672.85 1440.67 676.07zM1006.43 1195.61c1.98 2.26 3.67 4.92 4.9 7.71 1.4 3.16 2.2 6.48 2.2 9.53l-.01 107.33c-.01 4.02-1.42 6.84-3.68 8.16l-9.18 5.32c2.27-1.32 3.68-4.14 3.69-8.16l.01-107.33c.01-3.05-.8-6.37-2.2-9.53-1.23-2.78-2.92-5.45-4.9-7.7-1.67-1.9-3.55-3.52-5.55-4.67l-3.49-2.01c-3.51-2.03-6.7-2.21-9.02-.86l9.17-5.33c2.31-1.35 5.51-1.16 9.02.86l3.49 2.01C1002.88 1192.09 1004.77 1193.71 1006.43 1195.61z"/><path d="M1004.68,1218.28l-0.78,107.33c-0.08,8.1-5.77,11.28-12.78,7.16l-3.47-2.04c-6.95-4.08-12.57-13.9-12.49-22l0.78-107.33
					c0.08-8.01,5.83-11.23,12.78-7.16l3.47,2.04C999.21,1200.4,1004.76,1210.27,1004.68,1218.28z"/><path fill="#fff" d="M1299.09 733.38c-6.85 3.95-12.38 13.54-12.36 21.41.02 7.87 5.59 11.05 12.44 7.1 6.85-3.95 12.39-13.54 12.37-21.41C1311.51 732.6 1305.94 729.42 1299.09 733.38zM1439.61 2070.74c1.2-.24 2.33-.36 3.34-.36 1.97 0 3.5.45 4.26 1.3 1.13 1.27 1.13 4.15.01 7.5-3.42 10.27-15.77 21.16-26.44 23.31-3.53.71-6.44.35-7.58-.95-1.12-1.27-1.13-4.15-.01-7.5C1416.66 2083.61 1428.77 2072.93 1439.61 2070.74z"/><path d="M1401.4,2111.98c3.82,4.32,9.52,6.61,16.14,6.61c2.04,0,4.17-0.22,6.36-0.66c16.25-3.28,33.06-18.11,38.27-33.77
						c2.97-8.92,1.82-17.27-3.16-22.91c-5-5.66-13.21-7.83-22.5-5.95c-16.24,3.28-33.04,18.11-38.26,33.77
						C1395.27,2098,1396.42,2106.35,1401.4,2111.98z M1413.18,2094.05c3.48-10.45,15.58-21.12,26.43-23.31
						c1.2-0.24,2.33-0.36,3.34-0.36c1.97,0,3.5,0.45,4.26,1.3c1.13,1.27,1.13,4.15,0.01,7.5c-3.42,10.27-15.77,21.16-26.44,23.31
						c-3.53,0.71-6.44,0.35-7.58-0.95C1412.07,2100.28,1412.06,2097.4,1413.18,2094.05z"/><g><polygon fill="#fff" points="1330.52 1347.06 1051.88 1186.19 1051.88 1039.43 1330.52 1323.99"/><path fill="none" stroke="#000" stroke-linecap="round" stroke-miterlimit="10" stroke-width="5.669" d="M1998.57,939.71"/><rect width="0" height="405.36" x="1358.2" y="870.44" fill="none"/><rect width="0" height="405.36" x="1520.68" y="776.63" fill="none" transform="rotate(-44.398 1520.71 979.38)"/><polygon fill="none" points="1369.66 908.94 1610.02 1154.41 1610.02 1154.41"/><rect width="0" height="21.63" x="1616.1" y="1170.15" fill="none"/><polygon fill="none" points="1051.88 1186.19 1330.52 1347.06 1330.52 1323.99 1051.88 1039.43"/><polygon fill="none" points="1882.52 997.08 1882.52 997.08 1756.25 868.13"/><polygon fill="none" points="1106.38 991.83 1282.62 1171.81 1106.38 991.83"/><polygon fill="none" points="1169.29 972.23 1158.83 961.54 1158.83 961.54"/><polygon fill="none" points="1842.36 864.03 1940.09 963.84 1940.09 963.84"/><rect width="0" height="405.36" x="1578.25" y="743.4" fill="none"/><polygon fill="#fff" points="1598.92 707.45 1546.47 737.74 1830.07 1027.37 1882.52 997.08 1756.25 868.13"/><polygon fill="#fff" points="1836.1 1064.75 1888.48 1034.5 1888.48 1012.89 1836.1 1043.13"/><polygon fill="#fff" points="1106.38 991.83 1282.62 1171.81 1389.97 1281.46 1442.43 1251.17 1169.29 972.23 1158.83 961.54"/><polygon fill="#fff" points="1396.09 1318.82 1448.48 1288.57 1448.48 1266.93 1396.09 1297.17"/><polygon fill="#fff" points="1772.5 1060.61 1488.9 770.98 1436.45 801.26 1720.05 1090.89"/><polygon fill="#fff" points="1726.02 1128.31 1778.4 1098.06 1778.4 1076.44 1726.02 1106.68"/><polygon fill="#fff" points="1985.5 937.63 1701.91 648 1656.49 674.22 1842.36 864.03 1940.09 963.84"/><polygon fill="#fff" points="1946.18 979.57 1946.18 1001.18 1990.23 975.75 1990.23 954.14"/><polygon fill="#fff" points="1662.48 1124.13 1378.88 834.5 1326.42 864.78 1369.66 908.94 1610.02 1154.41"/><polygon fill="#fff" points="1616.1 1191.78 1668.48 1161.53 1668.48 1139.91 1616.1 1170.15"/><polygon fill="#fff" points="1552.45 1187.65 1268.85 898.02 1216.4 928.3 1500 1217.93"/><polygon fill="#fff" points="1506.02 1255.34 1558.4 1225.1 1558.4 1203.46 1506.02 1233.7"/><path d="M2002.73,932.49c-0.11-0.07-0.24-0.09-0.36-0.15l-297.76-304.09l-662.69,382.6c-0.52,0.1-1.03,0.24-1.53,0.44
						c-3.14,1.28-5.18,4.33-5.18,7.72V1191c0,2.98,1.59,5.73,4.17,7.22l295.31,170.49c1.29,0.74,2.73,1.12,4.17,1.12
						s2.88-0.37,4.17-1.12l659.71-380.93c2.58-1.49,4.17-4.24,4.17-7.22v-40.85C2006.9,936.73,2005.31,933.98,2002.73,932.49z
						 M1946.18,1001.18v-21.61l44.05-25.43v21.61L1946.18,1001.18z M1882.52,997.08l-52.45,30.28l-283.6-289.63l52.45-30.28
						l157.33,160.68L1882.52,997.08L1882.52,997.08z M1778.4,1098.06l-52.38,30.25v-21.63l52.38-30.24V1098.06z M1169.29,972.23
						l273.14,278.94l-52.45,30.28l-107.36-109.64l-176.24-179.99v0l52.45-30.28l0,0L1169.29,972.23z M1330.52,1347.06
						l-278.64-160.87v-146.76l278.64,284.56V1347.06z M1448.48,1288.57l-52.38,30.25v-21.65l52.38-30.24V1288.57z M1216.4,928.3
						L1216.4,928.3l52.45-30.28l283.6,289.63l-52.45,30.28h0L1216.4,928.3z M1558.4,1225.1l-52.38,30.25v-21.64l52.38-30.24V1225.1z
						 M1369.66,908.94l-43.24-44.16l52.45-30.28l0,0l283.6,289.63h0l-52.45,30.28h0L1369.66,908.94z M1668.48,1161.53l-52.38,30.25
						v0v-21.63l0,0l52.38-30.24V1161.53z M1436.45,801.26L1436.45,801.26l52.45-30.28l283.6,289.63l-52.45,30.28l0,0L1436.45,801.26
						z M1888.48,1034.5l-52.38,30.25v-21.62l52.38-30.24V1034.5z M1842.36,864.03l-185.87-189.82l45.41-26.22l283.6,289.63
						l-45.41,26.22v0L1842.36,864.03z"/></g><g><rect width="365.04" height="151.17" x="1943.11" y="1078.61" fill="#fff" transform="rotate(-14.662 2125.531 1154.17)"/><path d="M2021.19,1276.87l264.83-69.28c0.01,0,0.02-0.01,0.04-0.01l55.63-14.55l-46.69-178.5l-385.41,100.82l46.69,178.5
				L2021.19,1276.87C2021.18,1276.88,2021.18,1276.88,2021.19,1276.87C2021.19,1276.88,2021.19,1276.87,2021.19,1276.87z
				 M1998.39,1227.76c-16.48-7.18-33.86-1.93-41.84,1.31l-13.16-50.3c18.24-5.33,30.41-14.73,36.19-27.97
				c5.9-13.52,3.42-27.63,0.56-36.67l247.53-64.75c5.43,17.13,14.61,28.62,27.35,34.18c6.05,2.64,12.23,3.6,18.02,3.6
				c9.19,0,17.38-2.42,22.56-4.41l12.28,46.94c-17.32,5.41-28.93,14.63-34.53,27.47c-5.89,13.52-3.42,27.63-0.56,36.67
				l-248.13,64.91C2019.14,1243.38,2010.33,1232.97,1998.39,1227.76z M2288.96,1189.6c-2.12-6.33-4.3-16.66-0.32-25.78
				c3.5-8.04,11.41-14.06,23.48-17.97l9.23,35.28L2288.96,1189.6z M2291.35,1066.49c-5.04,2.16-18.3,6.79-29.74,1.75
				c-7.92-3.49-13.88-11.26-17.79-23.09l39.26-10.27L2291.35,1066.49z M1963.98,1118.36c2.12,6.33,4.31,16.66,0.32,25.78
				c-3.66,8.39-12.15,14.57-25.14,18.47l-9.25-35.34L1963.98,1118.36z M1960.82,1245.38c3.67-1.71,18.44-7.82,30.99-2.3
				c7.18,3.16,12.73,9.88,16.62,19.91l-40.24,10.53L1960.82,1245.38z"/><path d="M2134.97 1208.56c-8.96 0-17.98-3.39-26.11-9.93-10.13-8.15-17.73-20.39-21.41-34.45-7.83-29.93 4.77-59.24 28.08-65.35 23.32-6.11 48.66 13.29 56.49 43.23l0 0c3.68 14.06 3.04 28.45-1.8 40.52-5.19 12.93-14.52 21.75-26.29 24.83C2140.98 1208.18 2137.98 1208.56 2134.97 1208.56zM2124.34 1114.38c-1.55 0-3.08.19-4.59.58-14.18 3.71-21.59 24.32-16.18 45 2.78 10.63 8.37 19.75 15.74 25.68 6.64 5.34 13.89 7.34 20.4 5.64 6.52-1.71 11.86-7 15.03-14.91 3.52-8.78 3.93-19.46 1.15-30.09C2151.06 1127.8 2137.33 1114.38 2124.34 1114.38zM2017.16 1190.91c-3.7 0-7.08-2.48-8.06-6.23-1.16-4.45 1.5-9.01 5.95-10.17l46.2-12.08c4.45-1.15 9.01 1.5 10.17 5.95 1.16 4.45-1.5 9.01-5.95 10.17l-46.2 12.08C2018.57 1190.82 2017.86 1190.91 2017.16 1190.91zM2193.16 1144.87c-3.7 0-7.08-2.48-8.06-6.23-1.16-4.45 1.5-9.01 5.95-10.17l46.2-12.08c4.45-1.16 9.01 1.5 10.17 5.95 1.16 4.45-1.5 9.01-5.95 10.17l-46.2 12.08C2194.57 1144.78 2193.86 1144.87 2193.16 1144.87z"/></g><g><path fill="#fff" d="M1932.98,1459.57l225.04,191.13c-56.07,66.01-138.43,104.12-225.04,104.12
					c-161.97,0-295.25-133.28-295.25-295.25s133.28-295.25,295.25-295.25c22.1,0,44.12,2.48,65.67,7.39L1932.98,1459.57z"/><path d="M1932.98,1763.15c-80.56,0-156.65-31.72-214.26-89.33c-57.6-57.6-89.33-133.69-89.33-214.26
					c0-80.56,31.72-156.65,89.33-214.26s133.69-89.33,214.26-89.33c22.69,0,45.4,2.56,67.52,7.6c4.49,1.02,7.29,5.49,6.27,9.98
					l-64.54,282.92l221.18,187.86c3.51,2.98,3.94,8.24,0.95,11.75C2106.59,1724.13,2022.25,1763.15,1932.98,1763.15z
					 M1932.98,1172.65c-76.11,0-148.01,29.99-202.47,84.45c-54.45,54.45-84.45,126.36-84.45,202.47s29.99,148.01,84.45,202.47
					c54.46,54.45,126.36,84.45,202.47,84.45c81.58,0,158.81-34.48,213.2-94.91l-218.6-185.66c-2.37-2.01-3.42-5.17-2.73-8.2
					l63.79-279.61C1970.34,1174.49,1951.65,1172.65,1932.98,1172.65z"/><path fill="#fff" d="M2068.03,1181.4l-99.79,254.04l271.16-31.04c-7.01-48.7-26.45-94.85-56.49-133.94
					C2152.87,1231.38,2113.28,1200.71,2068.03,1181.4z"/><path d="M2257.03,1410.77c-6.27-54.74-27.32-106.77-60.9-150.46c-33.58-43.69-78.43-77.43-129.72-97.58
					c-4.29-1.69-9.12,0.43-10.8,4.71l-107.95,274.81c-1.07,2.72-0.63,5.81,1.15,8.12c1.59,2.06,4.04,3.26,6.61,3.26
					c0.31,0,0.63-0.02,0.95-0.05l293.34-33.57c2.2-0.25,4.2-1.36,5.58-3.1C2256.65,1415.17,2257.28,1412.97,2257.03,1410.77z
					 M1968.24,1435.44l99.79-254.04c45.25,19.31,84.84,49.97,114.88,89.06c30.04,39.09,49.48,85.23,56.49,133.94L1968.24,1435.44z"/><g><path fill="#fff" d="M2255.57,1458.25l-259.76,12.42l220.81,137.38c25.54-43.83,39-93.58,39-144.43
					C2255.62,1461.83,2255.6,1460.04,2255.57,1458.25z"/><path d="M2271.94,1449.12c-0.22-4.6-4.04-8.17-8.72-7.92l-294.91,14.1c-3.64,0.17-6.75,2.7-7.67,6.23s0.57,7.25,3.66,9.17
					l250.69,155.97c1.37,0.85,2.89,1.26,4.39,1.26c2.78,0,5.5-1.39,7.08-3.93c29.98-48.17,45.82-103.63,45.82-160.37
					C2272.29,1458.79,2272.17,1453.91,2271.94,1449.12z M1995.81,1470.67l259.76-12.42c0.04,1.79,0.05,3.58,0.05,5.37
					c0,50.84-13.46,100.6-39,144.43L1995.81,1470.67z"/></g></g><g><path fill="#fff" d="M1786.81,1596.47c-2.37,0.15-4.74-0.95-6.36-2.75s-2.38-4.21-2.09-6.61l6.91-55.8l-527.61,306.19
					l92.04-9.25c0.28-0.03,0.56-0.04,0.83-0.04c2.35,0,4.61,1,6.2,2.76c1.78,1.97,2.5,4.68,1.96,7.28l-13.88,66.34l536.6-310.15
					L1786.81,1596.47z"/><path d="M1921.7,1583.18c-1.01-3.61-4.29-6.09-8.02-6.09c-0.06,0-0.12,0-0.18,0l-117.41,2.51l7.79-62.89
					c0.39-3.14-1.04-6.23-3.68-7.98c-2.64-1.74-6.04-1.84-8.78-0.26l-575.49,333.97c-3.39,1.97-4.95,6.04-3.75,9.77
					c1.21,3.74,4.89,6.1,8.76,5.73l119.09-11.97l-15.37,73.46c-0.67,3.22,0.61,6.53,3.27,8.46c1.45,1.05,3.17,1.58,4.89,1.58
					c1.44,0,2.88-0.37,4.17-1.12l580.85-335.72C1921.14,1590.74,1922.72,1586.84,1921.7,1583.18z M1358.68,1838.25
					c0.54-2.6-0.18-5.3-1.96-7.28c-1.59-1.77-3.84-2.76-6.2-2.76c-0.28,0-0.56,0.01-0.83,0.04l-92.04,9.25l527.61-306.19l-6.91,55.8
					c-0.3,2.4,0.46,4.82,2.09,6.61s3.99,2.9,6.36,2.75l94.6-2.02l-536.6,310.15L1358.68,1838.25z"/><path fill="#fff" d="M1324.67,1919.44l15.35-73.33l-111.99,11.14l-35.88,636.37l153.18,87.85l-20.83-660.06
					C1324.47,1920.75,1324.53,1920.09,1324.67,1919.44z"/><path d="M1341.18,1921.88l17.48-83.49c0.54-2.6-0.18-5.3-1.96-7.28c-1.77-1.98-4.38-2.98-7.03-2.72l-130.4,12.97
					c-4.09,0.41-7.26,3.73-7.5,7.82l-36.57,648.63c-0.18,3.15,1.44,6.13,4.17,7.7l170.59,97.84c1.28,0.74,2.72,1.1,4.15,1.1
					c1.49,0,2.97-0.4,4.29-1.19c2.59-1.56,4.13-4.39,4.04-7.41L1341.18,1921.88z M1192.15,2493.62l35.88-636.37l111.99-11.14
					l-15.35,73.33c-0.14,0.65-0.19,1.31-0.17,1.97l20.83,660.06L1192.15,2493.62z"/><polygon points="1183.57 2498.31 1310.5 2448.6 1332.82 1921.14 1354.13 2596.13"/><polygon points="1778.96 1589.2 1779.44 1656.15 1890.9 1591.8"/><polygon fill="#fff" points="1341.31 1925.87 1362.03 2582 1933.55 2253.94 1905.93 1599.53"/><path d="M1922,1585.07c-0.12-2.91-1.76-5.55-4.31-6.95c-2.56-1.4-5.66-1.37-8.18,0.09l-580.85,335.72
					c-2.66,1.54-4.26,4.41-4.16,7.48l21.31,674.99c0.09,2.92,1.71,5.59,4.27,7.01c1.26,0.71,2.66,1.06,4.06,1.06
					c1.43,0,2.86-0.37,4.15-1.11l587.96-337.49c2.7-1.55,4.31-4.47,4.18-7.58L1922,1585.07z M1362.03,2582l-20.72-656.13
					l564.62-326.34l27.63,654.41L1362.03,2582z"/><g><path d="M1731.87 1752.94c1.68 7.2-1.6 16.12-7.31 19.94-5.71 3.81-11.71 1.07-13.38-6.13-1.68-7.2 1.59-16.12 7.31-19.94C1724.21 1743 1730.2 1745.74 1731.87 1752.94zM1562.08 1856.44c1.68 7.2-1.6 16.12-7.31 19.93-5.71 3.81-11.71 1.07-13.38-6.13-1.68-7.2 1.59-16.12 7.31-19.94C1554.42 1846.5 1560.41 1849.24 1562.08 1856.44z"/></g><path d="M1651.78,1999.12c-9.42,0-18.68-2.31-27.7-6.92c-51.98-26.58-78.1-122.49-79.18-126.55c-1.19-4.45,1.45-9.01,5.9-10.2
				c4.45-1.18,9.01,1.45,10.2,5.9c0.25,0.93,25.29,92.82,70.68,116.02c11.96,6.11,24.02,6.71,36.84,1.81
				c30.58-11.66,51.53-31.17,62.28-57.97c26.31-65.6-15.35-154.73-15.78-155.62c-1.97-4.16-0.21-9.13,3.95-11.1
				c4.15-1.96,9.12-0.21,11.1,3.94c1.86,3.91,45.23,96.51,16.22,168.93c-12.55,31.32-36.71,53.99-71.83,67.39
				C1666.83,1997.67,1659.25,1999.12,1651.78,1999.12z"/></g><line x1="1140.97" x2="1418.7" y1="1547.49" y2="1419.31" fill="#fff"/><path d="M1140.98 1555.83c-3.15 0-6.17-1.8-7.57-4.84-1.93-4.18-.11-9.13 4.07-11.06l277.73-128.18c4.17-1.94 9.13-.11 11.06 4.07 1.93 4.18.11 9.13-4.07 11.06l-277.73 128.18C1143.33 1555.58 1142.15 1555.83 1140.98 1555.83zM1400.07 1576.08c-1.93-4.18-6.89-6.01-11.06-4.07l-251.54 116.09c-4.18 1.93-6 6.88-4.07 11.06 1.41 3.05 4.42 4.84 7.57 4.84 1.17 0 2.36-.25 3.49-.77L1396 1587.14C1400.18 1585.21 1402 1580.26 1400.07 1576.08zM1333.11 1537.7c-1.93-4.18-6.89-6.01-11.06-4.07l-184.57 85.19c-4.18 1.93-6 6.88-4.07 11.06 1.41 3.05 4.42 4.84 7.57 4.84 1.17 0 2.36-.25 3.49-.77l184.57-85.19C1333.21 1546.83 1335.04 1541.88 1333.11 1537.7zM2474.69 1037.66c-16.07 0-26.59-6.65-33.42-14.44-14.92-17.05-19.06-48.81-11.9-88.64-17.4-2.57-37.28-5.05-59.98-7.36-88.17-8.98-175.61-11.02-176.48-11.04-4.35-.1-7.79-3.7-7.7-8.05.09-4.35 3.77-7.69 8.05-7.7.88.02 88.86 2.07 177.64 11.11 23.23 2.37 43.68 4.9 61.72 7.55.17-.69.34-1.39.51-2.09 11.22-45.3 34.04-91.74 61.04-124.22 5.44-6.55 11.34-12.01 17.62-16.37-1.48-2.04-2.94-4.11-4.36-6.2-24.19-35.38-38.56-73.73-39.41-105.19-.75-27.78 9.34-48.84 28.42-59.31 3.81-2.09 8.6-.7 10.69 3.12 2.09 3.81.7 8.6-3.12 10.69-17.48 9.59-20.66 29.81-20.25 45.07.83 30.57 16.21 69.28 41.91 104.19 25.33-10.53 55.03-5.62 84.55 15.08 29.77 20.87 55.58 56.7 45.03 74.72-6.8 11.62-23.37 11.21-49.24-1.22-31.11-14.94-60.54-38.84-84.6-68.42-6.28 4.27-11.31 9.32-15.13 13.91-27.37 32.93-48.14 77.95-58.17 118.66 96.67 15.86 114.48 35.42 118.45 49.8 5.9 21.38-20.22 37.78-28.81 43.17C2510.58 1031.55 2490.09 1037.66 2474.69 1037.66zM2444.79 936.98c-6.05 33.11-4.1 61.66 8.33 75.87 16.9 19.31 50.81 4.29 76.27-11.7 15.98-10.04 23.8-19.14 22-25.65C2549.77 969.64 2536.86 952.14 2444.79 936.98zM2535.84 781.73c20.88 24.99 47.13 47.09 77 61.44 23.17 11.12 28.8 7.5 28.83 7.46 3.15-5.39-10.98-33.19-40.48-53.87C2573.96 777.66 2552.23 776.27 2535.84 781.73zM850.93 2431.43c-.5 0-1.02-.05-1.53-.15-4.27-.84-7.04-4.99-6.2-9.25 13.65-69.12-31.95-152.31-82.03-189.75-2.29-1.71-4.92-3.57-7.82-5.42-12.68 81.73-34.34 150.42-55.67 172.55-8.9 9.23-16.59 8.94-21.49 7.06-8.72-3.34-20.56-15.23-22.82-79.7-1.61-45.99 3.91-104.71 39.41-123.28 13.81-7.22 30.26-7.35 47.98-.7 14.69-113.13 12.42-254.95-34.19-364.29-24.13-56.61-49.13-85.26-72.58-83.03-60.33 5.92-113.79 198.71-129.29 272.5-.9 4.26-5.08 6.98-9.33 6.09-4.26-.9-6.98-5.07-6.09-9.33.14-.68 14.61-69.02 38.65-137.42 33.15-94.32 68.31-143.95 104.52-147.5 31.76-3.14 60.74 27.15 88.61 92.53 51.64 121.14 46.53 266.84 38.88 342.91-1.18 11.71-2.56 23.3-4.12 34.69 4.87 2.77 9.8 6.02 14.77 9.73 53.9 40.29 102.89 130.28 88.05 205.41C857.9 2428.84 854.61 2431.43 850.93 2431.43zM716.1 2213.67c-5.48 0-10.9 1.11-16.02 3.79-22.03 11.52-33.03 50.15-30.97 108.77 2.12 60.43 12.62 65.51 12.73 65.55-.03-.01 3.47-.47 9.86-10.2 17.07-26 35.66-86.87 46.84-162.69C731.41 2215.82 723.71 2213.67 716.1 2213.67z"/><g><polygon fill="#fff" points="1881.78 2014.42 1895.76 2526.44 2151.44 2379.65 2125.49 1876.55"/><path d="M2141.44,1862.23c-0.15-2.88-1.78-5.48-4.31-6.88c-2.53-1.39-5.6-1.37-8.12,0.05l-259.8,146.98
					c-2.68,1.52-4.31,4.4-4.23,7.48l14.49,530.98c0.08,2.93,1.7,5.6,4.25,7.04c1.27,0.71,2.67,1.07,4.08,1.07
					c1.43,0,2.86-0.37,4.15-1.11l272.22-156.29c2.72-1.56,4.33-4.52,4.17-7.66L2141.44,1862.23z M1895.76,2526.44l-13.98-512.02
					l243.7-137.87l25.95,503.1L1895.76,2526.44z"/><path fill="#fff" d="M1865.15,2007.97l10.99-53.85l-85.73,8.95l-30.97,494.81l119.69,68.24l-14.15-516.26
					C1864.97,2009.23,1865.02,2008.59,1865.15,2007.97z"/><path d="M1881.68,2010.37l13.07-64.05c0.53-2.6-0.21-5.3-1.99-7.26c-1.78-1.96-4.38-2.98-7.04-2.69l-104.05,10.86
					c-4.05,0.42-7.2,3.71-7.45,7.77l-31.73,507.03c-0.2,3.17,1.43,6.19,4.19,7.76l137.07,78.14c1.28,0.73,2.7,1.09,4.13,1.09
					c1.48,0,2.97-0.4,4.28-1.19c2.58-1.55,4.13-4.37,4.05-7.38L1881.68,2010.37z M1759.44,2457.89l30.97-494.81l85.73-8.95
					l-10.99,53.85c-0.13,0.62-0.18,1.26-0.17,1.89l14.15,516.26L1759.44,2457.89z"/><polygon points="1750.83 2462.54 1887.81 2540.62 1875.98 2108.41 1852.27 2424.35"/><path fill="#fff" d="M2026.81,1867.56c-1.57-1.79-2.3-4.16-2.01-6.52l4.69-38.17l-208.81,120.29l65.05-6.79
					c0.29-0.03,0.58-0.05,0.87-0.05c2.34,0,4.58,0.98,6.17,2.73c1.78,1.97,2.52,4.67,1.99,7.27l-9.62,47.04l216.64-122.56
					l-68.77-0.42C2030.64,1870.38,2028.38,1869.35,2026.81,1867.56z"/><path d="M2141.18,1860.56c-0.95-3.65-4.24-6.21-8.02-6.24l-90.68-0.55l5.58-45.45c0.39-3.14-1.04-6.22-3.67-7.96
					c-2.63-1.74-6.03-1.85-8.76-0.27l-257.26,148.2c-3.41,1.96-4.98,6.05-3.77,9.79c1.21,3.74,4.87,6.16,8.79,5.72l92.76-9.68
					l-11.01,53.84c-0.65,3.2,0.62,6.49,3.26,8.41c1.45,1.06,3.17,1.59,4.9,1.59c1.41,0,2.83-0.36,4.1-1.08l259.8-146.98
					C2140.5,1868.05,2142.13,1864.22,2141.18,1860.56z M1885.15,1993.37l9.62-47.04c0.53-2.6-0.21-5.3-1.99-7.27
					c-1.59-1.75-3.84-2.73-6.17-2.73c-0.29,0-0.58,0.01-0.87,0.05l-65.05,6.79l208.81-120.29l-4.69,38.17
					c-0.29,2.36,0.44,4.73,2.01,6.52c1.57,1.78,3.83,2.82,6.21,2.83l68.77,0.42L1885.15,1993.37z"/><polygon points="2028.43 1866.14 2028.43 1917 2117.68 1866.68"/><path d="M2087.52,1937.81c0.22-1.73,0.13-3.48-0.41-5.08c-1.71-5.02-6.83-6.75-11.44-3.84c-4.61,2.9-6.96,9.32-5.25,14.35
				c0.53,1.55,1.4,2.74,2.46,3.62c5.46,17.88,19.42,71.63,2.4,107.08c-6.74,14.03-17.37,23.37-32.49,28.55
				c-18.02,6.17-34.35,5.41-48.53-2.25c-28.19-15.22-41.21-53.19-44.11-62.79c0.29-1.84,0.21-3.71-0.37-5.42
				c-1.71-5.02-6.83-6.74-11.44-3.84c-4.61,2.9-6.96,9.32-5.25,14.35c0.49,1.45,1.29,2.59,2.26,3.46
				c5.01,15.17,19.94,52.1,50.92,68.88c10.41,5.64,21.58,8.46,33.4,8.46c9.13,0,18.66-1.68,28.52-5.06
				c19.32-6.61,33.5-19.11,42.15-37.14C2111.68,2016.57,2092.2,1951.89,2087.52,1937.81z"/></g></svg>