<svg xmlns="http://www.w3.org/2000/svg" viewBox="0 0 128 128"><path fill="#1d409d" d="M78.688 96h-8.273l-4.641-18c-.172-.641-.465-1.965-.879-3.973s-.652-3.355-.715-4.043c-.094.844-.328 2.199-.703 4.066s-.664 3.199-.867 3.996L57.992 96h-8.25L41 61.734h7.148l4.383 18.703c.766 3.453 1.32 6.445 1.664 8.977.094-.891.309-2.27.645-4.137s.652-3.316.949-4.348l4.992-19.195h6.867l4.992 19.195c.219.859.492 2.172.82 3.938s.578 3.281.75 4.547c.156-1.219.406-2.738.75-4.559s.656-3.293.938-4.418l4.359-18.703h7.148L78.688 96zM104 80c-13.255 0-24 10.745-24 24s10.745 24 24 24 24-10.745 24-24-10.745-24-24-24zm10.882 16.988-.113.176-8.232 11.438c-.548.866-1.508 1.398-2.537 1.398s-1.989-.532-2.536-1.397l-8.346-11.614a3.01 3.01 0 0 1 .01-2.994 3.01 3.01 0 0 1 2.596-1.494H100V86c0-1.654 1.346-3 3-3h2c1.654 0 3 1.346 3 3v6.5h4.276c1.065 0 2.061.572 2.596 1.494a3.01 3.01 0 0 1 .01 2.994z"/><path fill="#ff9a30" d="m84 125.95-.05.05H84zM114 77v-.05l-.05.05z"/><path fill="#1d409d" d="M111.071 44.243 71.757 4.929A9.936 9.936 0 0 0 64.687 2H24c-5.514 0-10 4.486-10 10v104c0 5.514 4.486 10 10 10h59.95l-4-4H24c-3.309 0-6-2.691-6-6V12c0-3.309 2.691-6 6-6h40.687c1.603 0 3.109.624 4.242 1.757l39.314 39.314A6.044 6.044 0 0 1 110 51.313V72.95l4 4V51.313c0-2.67-1.04-5.181-2.929-7.07z"/><path fill="#fff" d="m113.95 77 .05-.05-4-4"/></svg>