<svg xmlns="http://www.w3.org/2000/svg" enable-background="new 0 0 128 128" viewBox="0 0 128 128"><path fill="#ff5a29" d="M75.984 72.422c0 3.688-1.152 6.508-3.457 8.461s-5.582 2.93-9.832 2.93h-3.117V96h-7.266V61.734h10.945c4.156 0 7.316.895 9.48 2.684s3.247 4.457 3.247 8.004zm-16.406 5.437h2.391c2.234 0 3.906-.441 5.016-1.324s1.664-2.168 1.664-3.855c0-1.703-.465-2.961-1.395-3.773s-2.387-1.219-4.371-1.219h-3.305v10.171zM104 80c-13.255 0-24 10.745-24 24s10.745 24 24 24 24-10.745 24-24-10.745-24-24-24zm10.882 16.988-.113.176-8.232 11.438c-.548.866-1.508 1.398-2.537 1.398s-1.989-.532-2.536-1.397l-8.346-11.614a3.01 3.01 0 0 1 .01-2.994 3.01 3.01 0 0 1 2.596-1.494H100V86c0-1.654 1.346-3 3-3h2c1.654 0 3 1.346 3 3v6.5h4.276c1.065 0 2.061.572 2.596 1.494a3.01 3.01 0 0 1 .01 2.994z"/><path fill="#ff9a30" d="m84 125.95-.05.05H84zM114 77v-.05l-.05.05z"/><path fill="#ff5a29" d="M111.071 44.243 71.757 4.929A9.936 9.936 0 0 0 64.687 2H24c-5.514 0-10 4.486-10 10v104c0 5.514 4.486 10 10 10h59.95l-4-4H24c-3.309 0-6-2.691-6-6V12c0-3.309 2.691-6 6-6h40.687c1.603 0 3.109.624 4.242 1.757l39.314 39.314A6.044 6.044 0 0 1 110 51.313V72.95l4 4V51.313c0-2.67-1.04-5.181-2.929-7.07z"/><path fill="#fff" d="m113.95 77 .05-.05-4-4"/></svg>